<svg version="1.1" id="Layer_1" xmlns="http://www.w3.org/2000/svg" xmlns:xlink="http://www.w3.org/1999/xlink" x="0px" y="0px"
	 width="100%" viewBox="0 0 1600 1459" enable-background="new 0 0 1600 1459" xml:space="preserve">
<path fill="#000000" opacity="1.000000" stroke="none" 
	d="
M1045.000000,1460.000000 
	C696.666687,1460.000000 348.833344,1460.000000 1.000000,1460.000000 
	C1.000000,973.666687 1.000000,487.333344 1.000000,1.000000 
	C534.333313,1.000000 1067.666626,1.000000 1601.000000,1.000000 
	C1601.000000,487.333344 1601.000000,973.666687 1601.000000,1460.000000 
	C1415.833374,1460.000000 1230.666626,1460.000000 1045.000000,1460.000000 
M820.501099,117.024010 
	C795.570557,118.084114 770.448914,117.357658 746.137878,124.461197 
	C725.549927,130.476883 705.087036,136.931580 684.436096,142.718475 
	C659.677124,149.656555 637.571655,161.298035 617.757812,177.685349 
	C609.839417,184.234344 601.618103,190.912338 592.483032,195.382324 
	C577.725891,202.603271 566.059753,213.001190 555.105103,224.837387 
	C548.700439,231.757401 541.551208,238.137985 534.038025,243.840408 
	C526.501221,249.560760 520.204163,256.091278 514.550415,263.656342 
	C506.298523,274.697876 497.681641,285.549316 488.328491,295.656433 
	C482.012665,302.481384 476.628448,309.523407 472.781403,318.009003 
	C467.159760,330.408936 460.509003,342.349121 455.058746,354.818329 
	C447.078613,373.075317 437.854126,391.104462 432.657318,410.183319 
	C425.900818,434.988098 422.198273,460.663025 417.871918,486.081024 
	C413.205231,513.498535 408.854401,540.988586 405.234436,568.561035 
	C400.138489,607.375977 396.885529,646.459839 390.815369,685.109985 
	C387.138855,708.519470 383.377289,731.920654 382.572784,755.484985 
	C380.645874,811.925659 380.150513,868.414124 378.857178,924.878357 
	C378.609985,935.669739 377.565582,946.458618 376.519684,957.212769 
	C374.134460,981.738525 371.220886,1006.216309 369.108276,1030.764038 
	C367.780914,1046.187378 367.755463,1061.718140 366.725830,1077.172729 
	C364.365417,1112.602539 361.884888,1148.021362 365.999420,1183.479858 
	C366.332642,1186.351562 367.028931,1189.637817 368.726990,1191.821045 
	C380.560913,1207.036011 394.817749,1219.228027 413.245850,1225.907959 
	C428.541687,1231.452637 443.969452,1236.668335 459.084229,1242.670898 
	C502.234894,1259.807007 546.125854,1271.982056 593.313843,1265.815063 
	C612.961487,1263.247192 632.685913,1261.473145 650.870300,1252.516357 
	C655.298889,1250.334961 660.229736,1249.085693 665.024841,1247.749756 
	C705.376404,1236.508301 745.658569,1225.001343 786.145630,1214.268188 
	C819.208801,1205.503174 851.713989,1193.856201 886.355286,1192.385864 
	C901.807251,1191.729858 917.524231,1189.934937 932.710022,1191.874268 
	C968.157532,1196.401611 1003.583191,1201.618652 1038.308838,1210.490601 
	C1053.128052,1214.276733 1067.773804,1218.997925 1082.783203,1221.729370 
	C1113.066040,1227.240601 1143.386475,1232.382690 1172.889771,1241.428711 
	C1176.729980,1242.606079 1180.841797,1242.897339 1184.082031,1243.467773 
	C1185.999023,1215.362915 1187.808350,1187.976440 1189.757080,1160.599854 
	C1190.867188,1145.004639 1192.605713,1129.444702 1193.346802,1113.834961 
	C1194.484253,1089.878418 1195.213013,1065.897339 1195.745972,1041.918335 
	C1196.827637,993.239502 1201.504639,944.817871 1205.648193,896.351746 
	C1207.549561,874.112061 1210.342896,851.846741 1210.483887,829.578735 
	C1210.824707,775.773254 1210.086182,721.955750 1209.291138,668.150391 
	C1208.904663,642.001648 1207.453369,615.867615 1206.415527,589.729675 
	C1205.199585,559.109436 1203.832031,528.494934 1202.690430,497.871979 
	C1202.268555,486.553375 1202.885376,475.172821 1202.016479,463.898529 
	C1199.564087,432.081787 1192.538330,401.087463 1184.438477,370.288269 
	C1181.094360,357.572174 1176.261719,345.795471 1168.435913,335.117554 
	C1163.733887,328.701996 1160.248657,321.409821 1155.901367,314.716309 
	C1143.760864,296.023895 1131.509644,277.402679 1119.160645,258.847473 
	C1117.241699,255.964035 1114.528809,253.618240 1112.271484,250.949005 
	C1103.899902,241.049377 1095.166138,231.421707 1087.332642,221.111145 
	C1079.974976,211.426773 1071.938110,202.785553 1061.247925,196.781937 
	C1049.685547,190.288437 1039.861572,181.662399 1030.306030,172.493561 
	C1023.164001,165.640533 1015.423523,158.727951 1006.694824,154.334961 
	C975.838135,138.805466 943.689087,125.631149 909.284058,121.470734 
	C880.267944,117.961990 850.779846,118.357079 820.501099,117.024010 
M1287.013062,893.486450 
	C1269.330322,876.601624 1250.539917,861.147522 1228.940918,848.215759 
	C1228.688721,850.704590 1228.464233,852.632263 1228.301758,854.565186 
	C1225.890503,883.265869 1223.863037,912.007263 1220.818970,940.640564 
	C1220.054688,947.829346 1220.787964,952.029297 1227.481201,955.706482 
	C1244.920776,965.287476 1261.580444,976.340454 1279.279297,985.380798 
	C1293.926270,992.862305 1309.708130,997.966858 1326.650513,997.265564 
	C1340.092651,996.709229 1345.258057,990.489319 1343.381836,977.296143 
	C1341.754883,965.855713 1336.612061,955.811951 1330.694946,946.149414 
	C1318.794189,926.716064 1303.801514,909.805786 1287.013062,893.486450 
M360.486786,884.358398 
	C360.486786,875.636292 360.486786,866.914185 360.486786,857.870361 
	C359.392365,858.138306 358.715454,858.168884 358.180328,858.460022 
	C356.443542,859.404907 354.701752,860.360413 353.062439,861.461548 
	C330.463745,876.641846 309.645172,893.963196 290.859528,913.672180 
	C275.085693,930.221252 260.317261,947.632446 250.765228,968.626465 
	C247.526886,975.743835 245.422638,983.681091 244.456436,991.449707 
	C243.311066,1000.658813 248.702286,1006.516174 258.013428,1006.890686 
	C265.248932,1007.181580 272.736908,1006.889099 279.777191,1005.335571 
	C307.164673,999.291992 330.896301,985.272339 353.943909,969.973267 
	C354.928314,969.319824 355.963440,968.036072 356.107452,966.932800 
	C357.527924,956.050720 359.412140,945.173706 359.901337,934.238647 
	C360.629761,917.956177 360.336304,901.627991 360.486786,884.358398 
z"/>
<path fill="#B3F4E7" opacity="1.000000" stroke="none" 
	d="
M821.000854,117.024109 
	C850.779846,118.357079 880.267944,117.961990 909.284058,121.470734 
	C943.689087,125.631149 975.838135,138.805466 1006.694824,154.334961 
	C1015.423523,158.727951 1023.164001,165.640533 1030.306030,172.493561 
	C1039.861572,181.662399 1049.685547,190.288437 1061.247925,196.781937 
	C1071.938110,202.785553 1079.974976,211.426773 1087.332642,221.111145 
	C1095.166138,231.421707 1103.899902,241.049377 1112.271484,250.949005 
	C1114.528809,253.618240 1117.241699,255.964035 1119.160645,258.847473 
	C1131.509644,277.402679 1143.760864,296.023895 1155.901367,314.716309 
	C1160.248657,321.409821 1163.733887,328.701996 1168.435913,335.117554 
	C1176.261719,345.795471 1181.094360,357.572174 1184.438477,370.288269 
	C1192.538330,401.087463 1199.564087,432.081787 1202.016479,463.898529 
	C1202.885376,475.172821 1202.268555,486.553375 1202.690430,497.871979 
	C1203.832031,528.494934 1205.199585,559.109436 1206.415527,589.729675 
	C1207.453369,615.867615 1208.904663,642.001648 1209.291138,668.150391 
	C1210.086182,721.955750 1210.824707,775.773254 1210.483887,829.578735 
	C1210.342896,851.846741 1207.549561,874.112061 1205.648193,896.351746 
	C1201.504639,944.817871 1196.827637,993.239502 1195.745972,1041.918335 
	C1195.213013,1065.897339 1194.484253,1089.878418 1193.346802,1113.834961 
	C1192.605713,1129.444702 1190.867188,1145.004639 1189.757080,1160.599854 
	C1187.808350,1187.976440 1185.999023,1215.362915 1184.082031,1243.467773 
	C1180.841797,1242.897339 1176.729980,1242.606079 1172.889771,1241.428711 
	C1143.386475,1232.382690 1113.066040,1227.240601 1082.783203,1221.729370 
	C1067.773804,1218.997925 1053.128052,1214.276733 1038.308838,1210.490601 
	C1003.583191,1201.618652 968.157532,1196.401611 932.710022,1191.874268 
	C917.524231,1189.934937 901.807251,1191.729858 886.355286,1192.385864 
	C851.713989,1193.856201 819.208801,1205.503174 786.145630,1214.268188 
	C745.658569,1225.001343 705.376404,1236.508301 665.024841,1247.749756 
	C660.229736,1249.085693 655.298889,1250.334961 650.870300,1252.516357 
	C632.685913,1261.473145 612.961487,1263.247192 593.313843,1265.815063 
	C546.125854,1271.982056 502.234894,1259.807007 459.084229,1242.670898 
	C443.969452,1236.668335 428.541687,1231.452637 413.245850,1225.907959 
	C394.817749,1219.228027 380.560913,1207.036011 368.726990,1191.821045 
	C367.028931,1189.637817 366.332642,1186.351562 365.999420,1183.479858 
	C361.884888,1148.021362 364.365417,1112.602539 366.725830,1077.172729 
	C367.755463,1061.718140 367.780914,1046.187378 369.108276,1030.764038 
	C371.220886,1006.216309 374.134460,981.738525 376.519684,957.212769 
	C377.565582,946.458618 378.609985,935.669739 378.857178,924.878357 
	C380.150513,868.414124 380.645874,811.925659 382.572784,755.484985 
	C383.377289,731.920654 387.138855,708.519470 390.815369,685.109985 
	C396.885529,646.459839 400.138489,607.375977 405.234436,568.561035 
	C408.854401,540.988586 413.205231,513.498535 417.871918,486.081024 
	C422.198273,460.663025 425.900818,434.988098 432.657318,410.183319 
	C437.854126,391.104462 447.078613,373.075317 455.058746,354.818329 
	C460.509003,342.349121 467.159760,330.408936 472.781403,318.009003 
	C476.628448,309.523407 482.012665,302.481384 488.328491,295.656433 
	C497.681641,285.549316 506.298523,274.697876 514.550415,263.656342 
	C520.204163,256.091278 526.501221,249.560760 534.038025,243.840408 
	C541.551208,238.137985 548.700439,231.757401 555.105103,224.837387 
	C566.059753,213.001190 577.725891,202.603271 592.483032,195.382324 
	C601.618103,190.912338 609.839417,184.234344 617.757812,177.685349 
	C637.571655,161.298035 659.677124,149.656555 684.436096,142.718475 
	C705.087036,136.931580 725.549927,130.476883 746.137878,124.461197 
	C770.448914,117.357658 795.570557,118.084114 821.000854,117.024109 
M953.071655,604.378906 
	C952.483582,625.035400 951.799622,645.689697 951.343689,666.349121 
	C951.072937,678.616943 959.641357,687.572021 971.948059,688.136292 
	C977.938843,688.411072 983.942932,688.513000 989.940491,688.495300 
	C1000.447510,688.464233 1006.101807,683.791992 1007.726807,673.393860 
	C1008.780029,666.654663 1009.662903,659.830750 1009.844910,653.024048 
	C1010.450012,630.393066 1011.032715,607.751282 1010.939880,585.116455 
	C1010.899292,575.229858 1004.847595,568.725159 995.453613,565.866882 
	C987.246826,563.369812 978.831116,562.506836 970.259277,564.101013 
	C959.876282,566.031982 955.444824,570.354675 954.332825,580.953308 
	C953.551514,588.399048 953.483337,595.919556 953.071655,604.378906 
M632.235901,573.600281 
	C631.285889,602.378174 630.154602,631.151855 629.479797,659.936218 
	C629.227417,670.697876 637.942261,679.199463 649.170349,679.953369 
	C655.474548,680.376587 661.813965,680.410217 668.136780,680.390442 
	C678.543152,680.357910 684.205750,675.612793 685.815918,665.214172 
	C686.909424,658.151917 687.893555,651.010010 688.079163,643.881592 
	C688.659058,621.606689 689.156616,599.319397 689.023499,577.040771 
	C688.964478,567.157532 683.051758,560.119385 673.536621,557.969849 
	C665.729614,556.206238 657.385742,555.484741 649.416382,556.092407 
	C637.983582,556.964111 634.397766,561.261780 632.235901,573.600281 
M946.604614,762.578613 
	C972.439087,770.616089 997.320374,766.672729 1021.508972,756.183044 
	C1030.915283,752.103821 1037.280884,744.663818 1040.985107,735.076172 
	C1043.037109,729.764893 1041.833984,725.548279 1037.962402,723.881836 
	C1033.952271,722.155640 1030.329468,724.163330 1028.190430,729.664001 
	C1025.560059,736.428589 1020.943542,741.289490 1014.279175,743.853271 
	C995.234558,751.180115 975.692261,753.799805 955.513123,749.313232 
	C944.745667,746.919312 936.905273,740.919739 932.040894,730.923462 
	C930.603577,727.969727 928.721863,725.143250 926.597595,722.636658 
	C924.235596,719.849487 920.982910,718.833191 917.653809,720.980103 
	C914.120483,723.258728 912.969910,726.806519 914.716187,730.572144 
	C921.320129,744.812439 929.855530,757.271484 946.604614,762.578613 
M643.229858,755.779358 
	C662.216064,758.300781 680.425964,754.857788 698.089905,748.176514 
	C708.409180,744.273438 715.608582,736.804565 719.707886,726.529785 
	C721.649048,721.664429 720.172241,717.393677 716.353394,715.902405 
	C712.557068,714.419983 709.103210,716.131409 707.023438,721.031677 
	C704.037842,728.065918 699.044312,732.964111 691.888733,735.338196 
	C672.510071,741.767944 652.857056,743.628540 632.877686,738.165100 
	C622.593628,735.352905 615.253601,729.174194 610.841125,719.405457 
	C609.482361,716.397278 607.784180,713.472900 605.814453,710.828125 
	C603.482056,707.696533 600.158264,706.518982 596.560425,708.618591 
	C592.871399,710.771484 591.573364,714.551758 593.490906,718.111328 
	C597.570435,725.684143 601.474304,733.623840 607.005920,740.080261 
	C616.050354,750.636719 629.093323,753.765259 643.229858,755.779358 
z"/>
<path fill="#B2F3E6" opacity="1.000000" stroke="none" 
	d="
M1287.269897,893.729736 
	C1303.801514,909.805786 1318.794189,926.716064 1330.694946,946.149414 
	C1336.612061,955.811951 1341.754883,965.855713 1343.381836,977.296143 
	C1345.258057,990.489319 1340.092651,996.709229 1326.650513,997.265564 
	C1309.708130,997.966858 1293.926270,992.862305 1279.279297,985.380798 
	C1261.580444,976.340454 1244.920776,965.287476 1227.481201,955.706482 
	C1220.787964,952.029297 1220.054688,947.829346 1220.818970,940.640564 
	C1223.863037,912.007263 1225.890503,883.265869 1228.301758,854.565186 
	C1228.464233,852.632263 1228.688721,850.704590 1228.940918,848.215759 
	C1250.539917,861.147522 1269.330322,876.601624 1287.269897,893.729736 
z"/>
<path fill="#B2F2E6" opacity="1.000000" stroke="none" 
	d="
M360.482239,884.838806 
	C360.336304,901.627991 360.629761,917.956177 359.901337,934.238647 
	C359.412140,945.173706 357.527924,956.050720 356.107452,966.932800 
	C355.963440,968.036072 354.928314,969.319824 353.943909,969.973267 
	C330.896301,985.272339 307.164673,999.291992 279.777191,1005.335571 
	C272.736908,1006.889099 265.248932,1007.181580 258.013428,1006.890686 
	C248.702286,1006.516174 243.311066,1000.658813 244.456436,991.449707 
	C245.422638,983.681091 247.526886,975.743835 250.765228,968.626465 
	C260.317261,947.632446 275.085693,930.221252 290.859528,913.672180 
	C309.645172,893.963196 330.463745,876.641846 353.062439,861.461548 
	C354.701752,860.360413 356.443542,859.404907 358.180328,858.460022 
	C358.715454,858.168884 359.392365,858.138306 360.486786,857.870361 
	C360.486786,866.914185 360.486786,875.636292 360.482239,884.838806 
z"/>
<path fill="#040606" opacity="1.000000" stroke="none" 
	d="
M953.084167,603.892822 
	C953.483337,595.919556 953.551514,588.399048 954.332825,580.953308 
	C955.444824,570.354675 959.876282,566.031982 970.259277,564.101013 
	C978.831116,562.506836 987.246826,563.369812 995.453613,565.866882 
	C1004.847595,568.725159 1010.899292,575.229858 1010.939880,585.116455 
	C1011.032715,607.751282 1010.450012,630.393066 1009.844910,653.024048 
	C1009.662903,659.830750 1008.780029,666.654663 1007.726807,673.393860 
	C1006.101807,683.791992 1000.447510,688.464233 989.940491,688.495300 
	C983.942932,688.513000 977.938843,688.411072 971.948059,688.136292 
	C959.641357,687.572021 951.072937,678.616943 951.343689,666.349121 
	C951.799622,645.689697 952.483582,625.035400 953.084167,603.892822 
z"/>
<path fill="#040606" opacity="1.000000" stroke="none" 
	d="
M632.286804,573.171509 
	C634.397766,561.261780 637.983582,556.964111 649.416382,556.092407 
	C657.385742,555.484741 665.729614,556.206238 673.536621,557.969849 
	C683.051758,560.119385 688.964478,567.157532 689.023499,577.040771 
	C689.156616,599.319397 688.659058,621.606689 688.079163,643.881592 
	C687.893555,651.010010 686.909424,658.151917 685.815918,665.214172 
	C684.205750,675.612793 678.543152,680.357910 668.136780,680.390442 
	C661.813965,680.410217 655.474548,680.376587 649.170349,679.953369 
	C637.942261,679.199463 629.227417,670.697876 629.479797,659.936218 
	C630.154602,631.151855 631.285889,602.378174 632.286804,573.171509 
z"/>
<path fill="#0F1413" opacity="1.000000" stroke="none" 
	d="
M946.240112,762.449341 
	C929.855530,757.271484 921.320129,744.812439 914.716187,730.572144 
	C912.969910,726.806519 914.120483,723.258728 917.653809,720.980103 
	C920.982910,718.833191 924.235596,719.849487 926.597595,722.636658 
	C928.721863,725.143250 930.603577,727.969727 932.040894,730.923462 
	C936.905273,740.919739 944.745667,746.919312 955.513123,749.313232 
	C975.692261,753.799805 995.234558,751.180115 1014.279175,743.853271 
	C1020.943542,741.289490 1025.560059,736.428589 1028.190430,729.664001 
	C1030.329468,724.163330 1033.952271,722.155640 1037.962402,723.881836 
	C1041.833984,725.548279 1043.037109,729.764893 1040.985107,735.076172 
	C1037.280884,744.663818 1030.915283,752.103821 1021.508972,756.183044 
	C997.320374,766.672729 972.439087,770.616089 946.240112,762.449341 
z"/>
<path fill="#0F1413" opacity="1.000000" stroke="none" 
	d="
M642.789551,755.710693 
	C629.093323,753.765259 616.050354,750.636719 607.005920,740.080261 
	C601.474304,733.623840 597.570435,725.684143 593.490906,718.111328 
	C591.573364,714.551758 592.871399,710.771484 596.560425,708.618591 
	C600.158264,706.518982 603.482056,707.696533 605.814453,710.828125 
	C607.784180,713.472900 609.482361,716.397278 610.841125,719.405457 
	C615.253601,729.174194 622.593628,735.352905 632.877686,738.165100 
	C652.857056,743.628540 672.510071,741.767944 691.888733,735.338196 
	C699.044312,732.964111 704.037842,728.065918 707.023438,721.031677 
	C709.103210,716.131409 712.557068,714.419983 716.353394,715.902405 
	C720.172241,717.393677 721.649048,721.664429 719.707886,726.529785 
	C715.608582,736.804565 708.409180,744.273438 698.089905,748.176514 
	C680.425964,754.857788 662.216064,758.300781 642.789551,755.710693 
z"/>
</svg>